<svg width="24" height="24" viewBox="0 0 24 24" fill="none" xmlns="http://www.w3.org/2000/svg">
<path d="M19 7H5" stroke="#222222" stroke-linecap="round"/>
<path d="M19 10H5" stroke="#222222" stroke-linecap="round"/>
<path d="M19 14H5" stroke="#222222" stroke-linecap="round"/>
<path d="M4 3H20C21.6569 3 23 4.34314 23 6V14.9131C23 16.57 21.6569 17.9131 20 17.9131H12.1783C12.063 17.9131 11.9512 17.953 11.8619 18.026L7.32657 21.7331C7.19597 21.8398 7 21.7469 7 21.5782V17.8989C7 17.6227 6.77614 17.3989 6.5 17.3989H4C2.34315 17.3989 1 16.0557 1 14.3989V6C1 4.34315 2.34315 3 4 3Z" stroke="#222222"/>
</svg>
