<svg width="24" height="24" viewBox="0 0 24 24" fill="none" xmlns="http://www.w3.org/2000/svg">
<rect x="2.5" y="2.5" width="19" height="19" rx="2.5" stroke="#222222"/>
<circle cx="6.5" cy="7.5" r="1.5" fill="#222222"/>
<circle cx="6.5" cy="16.5" r="1.5" fill="#222222"/>
<path d="M11 7.5C11 6.94772 11.4477 6.5 12 6.5H17C17.5523 6.5 18 6.94772 18 7.5C18 8.05228 17.5523 8.5 17 8.5H12C11.4477 8.5 11 8.05228 11 7.5Z" fill="#222222"/>
<path d="M11 16.5C11 15.9477 11.4477 15.5 12 15.5H17C17.5523 15.5 18 15.9477 18 16.5C18 17.0523 17.5523 17.5 17 17.5H12C11.4477 17.5 11 17.0523 11 16.5Z" fill="#222222"/>
</svg>
