<svg width="18" height="18" viewBox="0 0 18 18" fill="none" xmlns="http://www.w3.org/2000/svg">
<path d="M14.6106 3.93462L15.5008 4.87539M15.9459 1.58272C16.1213 1.76801 16.2605 1.988 16.3554 2.23013C16.4503 2.47226 16.4992 2.73178 16.4992 2.99386C16.4992 3.25595 16.4503 3.51546 16.3554 3.75759C16.2605 3.99972 16.1213 4.21971 15.9459 4.40501L7.48868 13.3423L3.92773 14.283L4.81797 10.5726L13.2788 1.58648C13.6123 1.23235 14.0596 1.02368 14.5319 1.00189C15.0042 0.98011 15.467 1.1468 15.8284 1.46888L15.9459 1.58272Z" stroke="white" stroke-width="1.14286" stroke-linecap="round" stroke-linejoin="round"/>
<path d="M10.7857 1H1.5C0.947716 1 0.5 1.44772 0.5 2V16C0.5 16.5523 0.947715 17 1.5 17H14.9286C15.4809 17 15.9286 16.5523 15.9286 16V8.24528" stroke="white"/>
</svg>
