<svg width="48" height="28" viewBox="0 0 48 28" fill="none" xmlns="http://www.w3.org/2000/svg">
<rect width="48" height="28" rx="5" fill="#FF8800"/>
<path d="M30.4545 21.7496L25.3636 16.6515C24.9091 17.0156 24.3864 17.3039 23.7955 17.5164C23.2045 17.7288 22.5758 17.835 21.9091 17.835C20.2576 17.835 18.86 17.2621 17.7164 16.1162C16.5727 14.9703 16.0006 13.5708 16 11.9175C16 10.2636 16.5721 8.86407 17.7164 7.7188C18.8606 6.57354 20.2582 6.00061 21.9091 6C23.5606 6 24.9582 6.57294 26.1018 7.7188C27.2455 8.86468 27.8176 10.2642 27.8182 11.9175C27.8182 12.5851 27.7121 13.2148 27.5 13.8065C27.2879 14.3983 27 14.9218 26.6364 15.377L31.75 20.4979C31.9167 20.6648 32 20.8696 32 21.1124C32 21.3551 31.9091 21.5676 31.7273 21.7496C31.5606 21.9165 31.3485 22 31.0909 22C30.8333 22 30.6212 21.9165 30.4545 21.7496ZM21.9091 16.0142C23.0455 16.0142 24.0115 15.6158 24.8073 14.8189C25.603 14.022 26.0006 13.0549 26 11.9175C26 10.7795 25.6021 9.81208 24.8064 9.01519C24.0106 8.2183 23.0448 7.82016 21.9091 7.82077C20.7727 7.82077 19.8067 8.21921 19.0109 9.0161C18.2152 9.81299 17.8176 10.7801 17.8182 11.9175C17.8182 13.0555 18.2161 14.0229 19.0118 14.8198C19.8076 15.6167 20.7733 16.0148 21.9091 16.0142Z" fill="white"/>
</svg>
