<svg width="26" height="24" viewBox="0 0 26 24" fill="none" xmlns="http://www.w3.org/2000/svg">
<path d="M18.5634 9.10152H23.1639C23.445 9.10001 23.7226 9.16252 23.9752 9.28419C24.2277 9.40586 24.4484 9.58339 24.6201 9.80298C24.7917 10.0226 24.9096 10.2783 24.9646 10.5502C25.0197 10.8221 25.0104 11.1028 24.9374 11.3706L22.3562 20.7875C22.2605 21.1372 22.0501 21.4459 21.7578 21.6652C21.4656 21.8846 21.1079 22.0023 20.7407 22H5.23002C4.8648 21.9997 4.50983 21.8808 4.21995 21.6617C3.93008 21.4425 3.72144 21.1353 3.62627 20.7875L1.06262 11.3706C0.99003 11.1042 0.980408 10.825 1.0345 10.5544C1.08859 10.2838 1.20494 10.0291 1.37459 9.80986C1.54425 9.59063 1.76266 9.41275 2.01301 9.28994C2.26336 9.16713 2.53895 9.10267 2.81855 9.10152H7.41908M18.5634 9.10152L14.0155 1.5957C13.9143 1.41522 13.7659 1.26477 13.5857 1.16001C13.4056 1.05525 13.2003 1 12.9912 1C12.7821 1 12.5768 1.05525 12.3967 1.16001C12.2166 1.26477 12.0682 1.41522 11.9669 1.5957L7.41908 9.10152M18.5634 9.10152H7.41908M12.9912 4.48256L15.7831 9.10152H10.1993L12.9912 4.48256Z" stroke="#222222" stroke-linecap="round" stroke-linejoin="round"/>
<path d="M17 14.4782C17.5716 14.1544 18.5871 13.7203 18.8911 14.244C19.1952 14.7676 18.806 16.0216 18.4168 17" stroke="#222222" stroke-linecap="round" stroke-linejoin="round"/>
<path d="M7 15C7.85632 15.7911 10.3793 16.9993 13.0632 16.9993C14.8818 17.0232 16.6437 16.4025 18 15.2601" stroke="#222222" stroke-linecap="round" stroke-linejoin="round"/>
</svg>
